PathFileType	4	(X/Y/Z)	D:\telocate\uwb02-Unnamed.trc
DataRate	CameraRate	NumFrames	NumMarkers	Units	OrigDataRate	OrigDataStartFrame	OrigNumFrames
100.00	100.00	      150	0	mm	100.00	3411	      4547
Frame#	Time	
		

3411	34.100	2446.79614	-2980.28418	1196.69128	
3412	34.110	2451.69312	-2979.72437	1196.39209	
3413	34.120	2456.47437	-2979.53711	1197.54272	
3414	34.130	2459.13818	-2979.44482	1197.52527	
3415	34.140	2463.12622	-2978.58569	1197.34180	
3416	34.150	2467.46606	-2978.65137	1197.02893	
3417	34.160	2471.21802	-2978.04102	1196.91992	
3418	34.170	2476.75928	-2977.93311	1197.35254	
3419	34.180	2480.56445	-2977.44751	1197.22852	
3420	34.190	2485.15967	-2977.60547	1197.26038	
3421	34.200	2491.14868	-2977.06738	1197.45483	
3422	34.210	2494.44092	-2977.01050	1197.29333	
3423	34.220	2499.80444	-2975.92603	1197.49670	
3424	34.230	2505.07227	-2975.18335	1196.93372	
3425	34.240	2509.73438	-2975.44653	1197.41309	
3426	34.250	2514.98218	-2975.28784	1197.38806	
3427	34.260	2519.63599	-2975.19043	1197.06909	
3428	34.270	2525.40234	-2974.76147	1197.39990	
3429	34.280	2530.50171	-2974.22021	1197.20703	
3430	34.290	2533.77808	-2974.11963	1197.16406	
3431	34.300	2540.15674	-2972.40747	1196.32446	
3432	34.310	2543.22290	-2972.09253	1197.42407	
3433	34.320	2545.54346	-2971.39282	1197.21179	
3434	34.330	2555.02173	-2969.33472	1196.89160	
3435	34.340	2560.20239	-2968.51929	1197.15942	
3436	34.350	2565.40625	-2967.83887	1197.04944	
3437	34.360	2571.12671	-2967.21997	1197.45386	
3438	34.370	2574.10742	-2966.13989	1197.98096	
3439	34.380	2580.06470	-2965.16187	1197.47058	
3440	34.390	2585.03125	-2964.36646	1197.22998	
3441	34.400	2588.58813	-2964.96606	1197.75903	
3442	34.410	2599.30664	-2964.22070	1198.02795	
3443	34.420	2605.11938	-2963.54126	1197.28711	
3444	34.430	2609.52979	-2963.90894	1197.80957	
3445	34.440	2613.04541	-2963.39478	1197.26807	
3446	34.450	2615.77441	-2963.25659	1198.08508	
3447	34.460	2619.66309	-2962.18750	1198.31030	
3448	34.470	2625.82031	-2962.21655	1198.92151	
3449	34.480	2628.39990	-2962.73779	1197.73157	
3450	34.490	2632.74854	-2963.52979	1197.77966	
3451	34.500	2638.37549	-2962.91187	1197.44373	
3452	34.510	2644.78833	-2961.78174	1198.56091	
3453	34.520	2651.34253	-2961.97339	1198.09351	
3454	34.530	2656.81348	-2962.62744	1198.02991	
3455	34.540	2662.31665	-2963.52637	1197.77197	
3456	34.550	2666.73657	-2962.72900	1198.39966	
3457	34.560	2669.62012	-2962.81519	1198.80798	
3458	34.570	2682.06006	-2963.09863	1197.90894	
3459	34.580	2685.39404	-2962.63257	1198.10938	
3460	34.590	2688.17017	-2963.46973	1197.98218	
3461	34.600	2692.65381	-2962.61621	1198.32300	
3462	34.610	2695.02466	-2962.14941	1198.59290	
3463	34.620	2698.92334	-2962.45581	1198.50464	
3464	34.630	2703.03516	-2963.13721	1198.85217	
3465	34.640	2706.44482	-2963.25562	1198.11658	
3466	34.650	2710.47461	-2962.97095	1197.70203	
3467	34.660	2722.14868	-2962.44263	1197.75964	
3468	34.670	2723.09229	-2962.81494	1198.40967	
3469	34.680	2731.31543	-2962.51025	1197.01685	
3470	34.690	2738.04248	-2963.65356	1197.40881	
3471	34.700	2741.55371	-2963.18018	1197.46082	
3472	34.710	2744.81885	-2963.69971	1196.17200	
3473	34.720	2753.92163	-2964.14868	1197.18018	
3474	34.730	2761.19385	-2964.29224	1196.78906	
3475	34.740	2764.82910	-2964.26855	1196.54688	
3476	34.750	2768.56665	-2965.69067	1196.20911	
3477	34.760	2770.80273	-2966.00146	1196.52686	
3478	34.770	2774.24194	-2966.22021	1196.93799	
3479	34.780	2777.50562	-2966.62842	1197.01990	
3480	34.790	2779.68530	-2967.14063	1196.94568	
3481	34.800	2783.96704	-2968.00073	1196.51196	
3482	34.810	2786.31738	-2968.90210	1196.16614	
3483	34.820	2788.53149	-2969.83179	1195.78650	
3484	34.830	2791.63940	-2970.80884	1196.26416	
3485	34.840	2793.94116	-2971.93018	1196.84814	
3486	34.850	2800.06177	-2972.71313	1197.25854	
3487	34.860	2803.46289	-2973.39014	1197.77625	
3488	34.870	2805.13428	-2975.50000	1196.73804	
3489	34.880	2810.44214	-2976.64551	1197.49854	
3490	34.890	2815.53711	-2976.97900	1197.25293	
3491	34.900	2817.59595	-2979.48120	1196.90356	
3492	34.910	2821.01416	-2981.19971	1197.69153	
3493	34.920	2823.34180	-2982.31714	1197.16418	
3494	34.930	2824.87793	-2984.09180	1197.12463	
3495	34.940	2826.94312	-2985.68799	1197.10571	
3496	34.950	2828.42700	-2987.33984	1197.46448	
3497	34.960	2830.84863	-2988.74707	1197.37512	
3498	34.970	2832.94189	-2990.90210	1197.46936	
3499	34.980	2834.25122	-2993.34399	1197.97498	
3500	34.990	2840.89526	-2995.83008	1197.66052	
3501	35.000	2842.41382	-2997.62329	1197.06128	
3502	35.010	2844.46313	-2999.79126	1197.54724	
3503	35.020	2851.22803	-3002.04150	1197.51404	
3504	35.030	2853.67163	-3004.08008	1198.07068	
3505	35.040	2855.36792	-3005.57178	1197.44495	
3506	35.050	2857.84717	-3007.73120	1197.60632	
3507	35.060	2859.52100	-3009.53149	1198.13965	
3508	35.070	2860.62134	-3010.50903	1198.06287	
3509	35.080	2861.82959	-3011.77588	1198.17432	
3510	35.090	2863.55127	-3013.32007	1198.68933	
3511	35.100	2864.67944	-3014.35767	1198.29370	
3512	35.110	2865.25757	-3015.26465	1198.15491	
3513	35.120	2866.47485	-3017.16675	1198.22559	
3514	35.130	2867.61035	-3018.53394	1197.93799	
3515	35.140	2868.36084	-3019.71655	1197.78943	
3516	35.150	2868.75439	-3020.66968	1198.33472	
3517	35.160	2869.25122	-3021.15649	1198.18225	
3518	35.170	2870.35498	-3022.89600	1198.14392	
3519	35.180	2871.11426	-3024.18408	1198.32593	
3520	35.190	2871.87915	-3025.40308	1198.72144	
3521	35.200	2872.56519	-3026.17065	1198.99634	
3522	35.210	2873.27490	-3027.27808	1199.34497	
3523	35.220	2872.64429	-3028.52515	1197.81311	
3524	35.230	2875.01733	-3029.52222	1199.49329	
3525	35.240	2875.86890	-3030.87524	1199.58948	
3526	35.250	2876.10693	-3032.45142	1200.26636	
3527	35.260	2876.49414	-3033.47021	1200.58838	
3528	35.270	2876.91187	-3034.66992	1200.45593	
3529	35.280	2877.44385	-3036.08813	1200.18018	
3530	35.290	2878.05640	-3037.18530	1200.21936	
3531	35.300	2878.98145	-3038.43433	1200.14929	
3532	35.310	2879.78174	-3040.33740	1199.86841	
3533	35.320	2879.14941	-3041.66577	1198.68750	
3534	35.330	2880.02173	-3043.53662	1198.51929	
3535	35.340	2880.34644	-3043.97827	1198.37280	
3536	35.350	2881.84912	-3044.44824	1199.71509	
3537	35.360	2881.41919	-3046.30664	1199.03723	
3538	35.370	2882.04761	-3048.02148	1197.81250	
3539	35.380	2882.40698	-3048.55615	1197.61108	
3540	35.390	2882.72437	-3049.26196	1197.83533	
3541	35.400	2882.94336	-3050.33301	1197.60535	
3542	35.410	2884.04907	-3050.71167	1197.75195	
3543	35.420	2889.22510	-3051.17676	1198.36316	
3544	35.430	2890.36328	-3052.30786	1198.36792	
3545	35.440	2891.44141	-3053.65625	1198.60107	
3546	35.450	2892.34912	-3054.70825	1198.59644	
3547	35.460	2893.24048	-3056.02563	1198.35608	
3548	35.470	2892.89185	-3057.10059	1197.58020	
3549	35.480	2888.82422	-3054.96045	1200.22607	
3550	35.490	2902.90015	-3059.69458	1196.04224	
3551	35.500	2903.97241	-3060.08398	1193.85645	
3552	35.510				2889.24341	-3055.79053	1201.05713	
3553	35.520				2890.71143	-3056.59009	1201.15491	
3554	35.530				2891.00708	-3056.71069	1201.14465	
3555	35.540				2892.78662	-3057.34668	1200.31213	
3556	35.550				2893.15845	-3056.83252	1200.56934	
3557	35.560				2893.51343	-3056.31030	1200.97632	
3558	35.570	
3559	35.580	
3560	35.590	2896.48047	-3056.71729	1201.26721	
